<?xml version="1.0" standalone="no"?>
<!DOCTYPE svg PUBLIC "-//W3C//DTD SVG 20010904//EN"
 "http://www.w3.org/TR/2001/REC-SVG-20010904/DTD/svg10.dtd">
<svg version="1.0" xmlns="http://www.w3.org/2000/svg"
 width="260.000000pt" height="260.000000pt" viewBox="0 0 260.000000 260.000000"
 preserveAspectRatio="xMidYMid meet">
<metadata>
Created by potrace 1.14, written by Peter Selinger 2001-2017
</metadata>
<g transform="translate(0.000000,260.000000) scale(0.100000,-0.100000)"
fill="#000000" stroke="none">
<path d="M1290 2590 c0 -4 7 -7 15 -6 23 3 26 12 5 13 -11 1 -20 -2 -20 -7z"/>
<path d="M1255 2554 c-12 -13 -28 -24 -35 -24 -7 0 -10 -7 -6 -16 4 -10 2 -13
-6 -8 -7 5 -9 2 -5 -8 4 -12 1 -14 -15 -10 -17 4 -20 2 -15 -12 4 -10 3 -15
-3 -11 -5 3 -18 1 -27 -5 -16 -11 -16 -11 -1 -6 10 3 20 0 24 -6 4 -7 3 -8 -4
-4 -7 4 -12 3 -12 -3 0 -6 -7 -8 -15 -4 -10 3 -15 0 -13 -8 2 -8 -3 -13 -9
-11 -12 2 -17 -10 -14 -30 0 -4 -5 -5 -13 -2 -8 3 -17 0 -22 -7 -4 -7 -3 -10
4 -5 6 3 13 2 16 -3 4 -5 -5 -8 -19 -6 -16 1 -25 -3 -25 -12 0 -8 5 -11 12 -7
7 5 8 3 3 -5 -4 -7 -16 -10 -27 -8 -16 5 -17 3 -7 -9 10 -12 9 -13 -6 -8 -13
5 -16 4 -11 -5 5 -8 1 -14 -13 -18 -11 -3 -18 -9 -15 -14 3 -5 0 -9 -6 -9 -7
0 -9 -7 -6 -16 5 -14 4 -15 -9 -4 -12 10 -15 10 -15 -4 0 -9 -6 -16 -14 -16
-8 0 -18 -5 -22 -12 -4 -6 -3 -8 4 -4 6 3 13 2 16 -3 4 -5 -5 -8 -19 -6 -16 1
-25 -3 -25 -12 0 -8 5 -11 12 -7 7 5 8 3 3 -5 -4 -7 -16 -11 -26 -8 -11 3 -17
1 -14 -3 3 -5 -7 -21 -22 -36 -16 -15 -20 -22 -10 -15 16 13 22 8 18 -13 -1
-5 4 -6 12 -3 7 3 14 -1 14 -9 0 -7 -5 -10 -10 -7 -6 3 -7 1 -3 -5 4 -7 14
-12 22 -12 8 0 14 -5 14 -11 0 -5 5 -7 10 -4 9 6 14 -8 11 -28 -1 -5 3 -6 8
-3 5 3 14 -1 21 -9 15 -18 34 -20 24 -3 -4 7 -3 8 5 4 14 -9 43 12 35 25 -3 5
1 9 9 9 19 0 69 54 60 65 -5 4 1 5 11 1 17 -6 17 -5 5 11 -11 13 -11 15 -1 9
16 -10 72 40 72 63 0 13 2 13 9 3 7 -11 10 -10 15 3 3 9 4 21 1 25 -3 5 3 7
14 5 15 -3 18 0 14 12 -4 10 -2 14 4 10 6 -4 28 12 49 35 20 24 34 38 30 31
-4 -7 7 -16 28 -24 19 -7 33 -16 31 -19 -5 -8 63 -70 77 -70 5 0 6 -4 3 -10
-3 -5 -1 -10 5 -10 6 0 8 -6 4 -12 -4 -7 -4 -10 1 -6 10 9 45 -9 45 -23 0 -6
15 -25 33 -42 17 -16 31 -34 30 -38 -2 -5 5 -5 14 -2 10 4 14 2 10 -4 -4 -6 0
-14 9 -17 8 -3 12 -11 8 -17 -4 -8 -3 -9 4 -5 7 4 12 2 12 -3 0 -6 5 -11 11
-11 5 0 7 6 3 13 -4 6 2 4 13 -6 22 -19 41 -8 27 16 -5 7 -2 7 10 -2 14 -12
17 -12 14 -1 -2 8 3 15 10 16 6 1 15 2 18 3 4 0 1 8 -6 16 -11 13 -10 14 2 10
9 -4 18 1 22 10 3 9 10 13 16 10 6 -4 7 1 3 11 -4 11 -3 15 5 10 7 -4 10 1 9
14 -1 11 -5 20 -9 20 -4 0 -8 8 -9 18 0 14 -2 14 -9 -3 -7 -17 -9 -18 -9 -2
-1 9 -16 27 -33 38 -29 18 -30 20 -8 15 23 -5 23 -5 -3 7 -15 7 -24 17 -20 22
5 4 0 5 -9 2 -10 -3 -20 -1 -24 5 -4 7 -3 8 4 4 7 -4 12 -2 12 3 0 6 -7 11
-15 11 -9 0 -18 7 -21 15 -4 8 -10 12 -15 9 -5 -3 -9 -2 -8 3 1 4 1 17 -1 28
l-1 20 -9 -20 c-7 -17 -9 -18 -9 -2 -1 9 -16 27 -33 38 -29 18 -30 20 -8 15
23 -5 23 -5 -3 7 -15 7 -24 16 -21 20 4 4 -4 7 -17 7 -14 0 -19 3 -13 8 9 5 8
11 -2 20 -11 10 -14 10 -15 0 0 -7 -4 -3 -9 10 -5 12 -14 22 -21 22 -6 0 -9 6
-6 14 4 10 -1 12 -16 9 -18 -4 -19 -3 -7 6 13 9 13 11 0 11 -9 0 -23 9 -33 20
-10 12 -21 18 -26 16 -5 -3 -8 2 -7 11 2 27 -53 25 -79 -3z m75 -239 c11 -13
10 -14 -4 -9 -9 3 -16 10 -16 15 0 13 6 11 20 -6z m-60 -8 c0 -2 -10 -12 -22
-23 l-23 -19 19 23 c18 21 26 27 26 19z m125 -55 c-3 -3 -11 0 -18 7 -9 10 -8
11 6 5 10 -3 15 -9 12 -12z m-245 -65 c0 -2 -10 -12 -22 -23 l-23 -19 19 23
c18 21 26 27 26 19z"/>
<path d="M945 1990 l20 -23 -23 12 c-12 7 -22 8 -21 4 3 -19 -1 -46 -7 -40
-10 10 -45 -33 -37 -46 4 -7 -2 -5 -12 3 -11 9 -16 10 -11 3 4 -7 3 -13 -3
-13 -5 0 -8 -16 -7 -35 2 -20 -1 -35 -7 -35 -6 0 -7 -3 -4 -6 4 -4 13 -1 22 6
15 12 21 4 16 -23 -1 -5 3 -6 9 -2 5 3 10 1 10 -5 0 -6 5 -8 10 -5 6 4 9 2 8
-2 -4 -14 58 -73 68 -65 5 4 2 -2 -6 -12 -9 -12 -10 -17 -3 -12 8 4 28 -8 52
-33 21 -22 42 -37 46 -33 4 4 5 2 3 -4 -4 -12 62 -80 75 -76 4 1 6 -2 3 -7 -9
-15 13 -24 28 -12 7 6 16 9 19 6 4 -3 5 -2 3 1 -7 9 27 44 36 38 5 -3 8 -2 7
3 -5 28 1 35 19 22 9 -7 14 -9 10 -5 -4 5 -2 16 5 24 10 13 9 14 -2 7 -10 -5
-12 -4 -7 3 10 16 22 15 40 -3 8 -9 19 -16 23 -15 4 0 8 -4 8 -9 0 -19 15 -24
15 -5 1 13 5 10 14 -12 8 -17 21 -34 31 -37 9 -4 14 -11 11 -16 -3 -5 4 -7 16
-3 16 4 19 2 14 -9 -4 -8 0 -5 9 6 9 11 21 19 26 17 6 -1 8 2 4 8 -3 5 -1 10
5 10 6 0 8 5 4 12 -5 7 0 9 14 6 15 -4 19 -2 15 8 -3 8 0 14 7 14 6 0 8 5 4
12 -5 8 -2 9 9 5 12 -4 17 -1 17 9 0 11 6 14 16 10 9 -3 12 -2 9 4 -4 6 11 28
33 50 22 21 38 41 34 44 -3 3 1 6 8 6 7 0 26 14 42 30 16 17 33 28 38 25 6 -3
7 0 4 8 -3 8 0 18 7 23 8 5 10 3 4 -6 -5 -9 -4 -11 4 -6 6 4 9 11 6 16 -3 5 5
16 17 24 12 9 18 16 12 16 -5 0 -16 -6 -23 -12 -11 -11 -11 -9 -2 9 9 19 9 22
-3 17 -8 -3 -17 0 -22 7 -5 8 -3 10 6 4 9 -5 11 -4 6 3 -4 7 -13 12 -21 12 -8
0 -17 5 -21 12 -5 7 -3 8 7 3 12 -8 12 -6 0 8 -7 9 -17 14 -22 11 -5 -3 -6 2
-3 10 4 11 0 14 -16 11 -17 -3 -19 -1 -11 8 7 9 5 16 -9 25 -14 9 -21 9 -26 0
-4 -7 -3 -8 4 -4 7 4 12 2 12 -3 0 -10 -14 -15 -32 -12 -4 0 -5 -6 -2 -14 4
-9 0 -15 -9 -15 -9 0 -22 -9 -30 -20 -8 -11 -17 -17 -20 -14 -4 4 -5 -3 -2
-14 3 -16 0 -19 -12 -15 -11 4 -14 2 -9 -5 6 -11 -5 -16 -25 -14 -4 1 -5 -9
-2 -21 4 -18 3 -19 -6 -7 -9 13 -11 12 -11 -3 0 -10 -5 -15 -11 -12 -6 4 -13
-2 -16 -14 -5 -19 -15 -25 -34 -23 -4 1 -5 -9 -2 -21 3 -13 1 -18 -4 -11 -5 8
-18 1 -38 -19 -22 -23 -24 -26 -5 -11 l25 19 -25 -28 c-13 -15 -30 -25 -37
-23 -7 3 -10 -1 -6 -10 6 -17 -13 -19 -21 -1 -3 6 -3 0 -1 -16 2 -15 0 -25 -6
-22 -5 4 -9 13 -9 21 0 12 -12 18 -32 15 -4 0 -5 12 -3 27 2 15 2 21 -1 15 -8
-18 -24 -16 -24 3 0 8 -4 12 -10 9 -5 -3 -10 2 -10 11 0 10 -3 15 -6 11 -4 -3
-13 1 -22 9 -13 14 -13 17 -1 26 11 8 10 9 -4 4 -20 -6 -47 14 -47 35 0 7 -3
10 -6 6 -10 -9 -34 19 -34 40 0 15 -2 16 -10 3 -7 -11 -10 -11 -10 -2 0 7 -4
10 -10 7 -6 -3 -7 1 -4 9 3 9 1 16 -6 16 -6 0 -8 5 -4 13 6 9 5 9 -8 0 -17
-15 -29 -7 -21 13 3 9 -1 14 -12 14 -9 0 -13 5 -10 10 3 6 -1 10 -9 10 -9 0
-16 3 -16 8 0 4 -10 13 -22 21 l-23 14 20 -23z m638 -65 c-3 -9 -8 -14 -10
-11 -3 3 -2 9 2 15 9 16 15 13 8 -4z"/>
<path d="M816 1858 c3 -5 10 -6 15 -3 13 9 11 12 -6 12 -8 0 -12 -4 -9 -9z"/>
<path d="M724 1771 c4 -7 -2 -15 -16 -20 -13 -6 -18 -10 -11 -10 7 -1 10 -8 6
-17 -4 -11 -8 -12 -13 -4 -5 9 -9 9 -14 1 -4 -6 -4 -17 0 -23 5 -8 0 -7 -11 2
-11 9 -16 10 -11 3 4 -7 2 -13 -3 -13 -6 0 -11 -7 -11 -15 0 -8 -3 -14 -7 -14
-27 4 -42 -3 -37 -16 4 -8 10 -15 16 -15 16 0 58 -48 58 -67 0 -15 2 -16 10
-3 7 11 10 11 10 2 0 -7 4 -10 10 -7 6 3 7 -1 4 -9 -3 -9 -1 -16 6 -16 6 0 8
-5 4 -12 -6 -10 -5 -10 8 -1 16 14 29 8 22 -11 -3 -7 6 -16 18 -22 13 -6 17
-9 9 -7 -11 3 -12 1 -1 -12 7 -8 19 -15 26 -15 8 0 14 -5 14 -11 0 -5 4 -8 9
-4 6 3 8 -7 6 -22 -2 -16 -2 -22 1 -15 8 17 24 15 24 -4 0 -8 5 -12 10 -9 6 3
10 -2 10 -11 0 -10 3 -15 6 -11 11 11 33 -17 22 -30 -7 -8 -3 -10 13 -6 17 5
21 3 17 -9 -5 -11 1 -13 23 -10 15 2 27 9 26 16 -1 6 4 10 11 8 6 -1 11 1 11
5 -4 23 3 31 22 28 17 -4 19 -2 9 10 -7 8 -10 16 -6 16 3 1 10 2 16 3 5 0 15
7 22 15 11 12 10 13 -2 7 -10 -5 -9 -3 2 6 16 13 16 16 -3 44 -10 16 -19 26
-19 22 0 -5 -9 1 -20 12 -12 12 -18 25 -15 30 4 6 -1 7 -11 3 -12 -4 -15 -3
-10 5 4 7 2 12 -3 12 -6 0 -24 13 -39 30 -16 16 -33 26 -38 22 -4 -4 -2 2 6
12 10 13 11 17 2 12 -15 -9 -75 51 -65 67 4 6 1 7 -6 3 -14 -9 -51 21 -51 41
0 7 -7 13 -15 13 -8 0 -15 5 -15 11 0 8 -6 7 -17 -2 -10 -8 -14 -9 -10 -2 4 6
2 15 -4 19 -8 4 -9 3 -5 -5z"/>
<path d="M2115 1770 c-3 -5 -3 -10 2 -11 4 0 -2 -4 -15 -10 -13 -5 -20 -13
-17 -19 6 -9 -8 -14 -28 -11 -5 1 -6 -3 -2 -9 3 -5 -1 -13 -9 -16 -9 -3 -16
-12 -16 -19 0 -7 -10 -15 -22 -19 -35 -9 -38 -8 -38 14 0 13 -7 20 -20 20 -11
0 -20 7 -20 15 0 8 -5 15 -11 15 -5 0 -7 4 -4 10 3 6 -1 7 -9 4 -11 -4 -16 0
-16 15 0 12 -5 21 -11 21 -5 0 -7 -6 -3 -12 6 -10 4 -10 -8 0 -13 11 -21 8
-46 -18 -31 -30 -49 -40 -36 -18 4 6 3 8 -4 5 -5 -4 -8 -16 -5 -27 4 -15 2
-19 -10 -14 -8 3 -18 0 -23 -7 -5 -8 -3 -10 7 -4 8 5 -15 -21 -51 -56 -40 -40
-68 -61 -72 -55 -4 6 -8 0 -8 -14 0 -17 -11 -32 -36 -49 -19 -13 -33 -30 -30
-36 3 -9 -2 -11 -16 -7 -18 4 -19 2 -9 -15 5 -11 7 -23 4 -27 -3 -3 -1 -6 5
-6 7 0 12 -7 12 -16 0 -8 5 -12 10 -9 6 3 10 1 10 -5 0 -6 5 -8 10 -5 9 5 15
-15 11 -38 -1 -4 10 -5 23 -3 18 3 23 1 19 -10 -3 -8 -9 -14 -15 -14 -5 0 -2
-7 6 -16 20 -20 20 -25 -1 -17 -11 4 -14 3 -9 -5 4 -7 1 -12 -8 -12 -9 0 -16
-7 -16 -15 0 -9 -6 -12 -15 -9 -11 5 -13 2 -8 -12 5 -14 3 -16 -11 -11 -9 4
-15 3 -12 -1 3 -5 -1 -20 -9 -35 -8 -17 -10 -27 -3 -27 5 0 7 -7 4 -16 -3 -8
-2 -12 4 -9 14 9 93 -72 84 -86 -4 -7 -3 -9 3 -6 12 8 176 -150 168 -163 -3
-4 5 -6 17 -2 11 3 19 1 16 -4 -3 -5 4 -18 15 -28 16 -15 19 -16 14 -3 -4 11
-2 14 8 10 8 -3 12 -10 8 -17 -4 -6 1 -5 10 3 20 16 22 25 5 16 -7 -4 -5 0 4
8 10 8 15 17 11 20 -3 4 1 7 10 7 9 0 16 3 16 8 -3 19 2 23 16 12 13 -11 14
-10 9 4 -5 12 0 19 16 23 16 4 18 8 8 14 -9 6 -7 9 10 9 12 0 22 -5 22 -11 0
-5 5 -7 10 -4 9 6 14 -8 11 -27 0 -5 2 -7 7 -5 4 1 8 -2 9 -7 1 -5 13 -16 27
-26 15 -9 23 -20 19 -23 -3 -4 -2 -7 3 -8 5 0 19 -2 32 -5 12 -2 22 1 22 7 0
5 -5 7 -12 3 -7 -4 -8 -3 -4 4 4 6 13 9 21 5 10 -3 15 1 15 11 0 9 7 19 15 22
8 4 12 11 8 18 -4 6 0 6 9 -2 13 -11 16 -10 14 4 0 9 5 19 13 22 9 3 11 0 6
-8 -5 -9 -4 -11 4 -6 9 6 9 11 0 22 -9 11 -7 14 11 14 16 0 20 4 16 16 -3 8
-2 12 4 9 5 -3 18 -1 27 5 16 9 16 10 1 8 -9 -2 -17 2 -17 7 0 6 7 9 16 7 8
-2 12 1 8 7 -3 7 0 8 9 5 11 -4 16 0 16 10 0 9 7 19 15 22 8 4 12 11 8 18 -4
6 0 6 9 -2 13 -11 16 -10 14 4 0 9 5 19 13 22 9 3 11 0 6 -8 -5 -9 -4 -11 4
-6 9 6 9 11 0 22 -9 11 -9 14 0 14 7 0 9 5 5 12 -4 7 -3 8 5 4 6 -4 8 -12 5
-18 -4 -7 -2 -8 4 -4 7 4 12 14 12 23 0 9 6 13 14 10 8 -3 13 1 12 10 0 9 5
18 13 21 9 3 11 0 6 -8 -5 -9 -4 -11 4 -6 9 6 9 11 -1 24 -11 13 -10 15 9 10
16 -4 20 -2 16 8 -3 8 1 14 10 14 9 0 19 5 23 12 4 6 3 8 -4 4 -6 -3 -13 -2
-16 3 -4 5 5 8 19 6 20 -2 23 1 14 11 -8 10 -7 12 9 9 15 -3 19 2 16 23 -2 24
-1 25 10 10 12 -16 13 -15 12 12 -1 16 -6 32 -13 34 -7 3 -10 -1 -7 -12 3 -9
-2 -5 -11 11 -8 15 -18 27 -21 27 -3 0 -2 -5 2 -12 4 -7 3 -8 -5 -4 -9 6 -9
11 1 24 9 11 9 14 1 8 -7 -4 -20 2 -30 14 -10 11 -24 20 -33 20 -13 0 -13 1 0
10 13 8 12 10 -4 10 -11 0 -16 5 -13 14 4 10 -1 12 -16 9 -18 -4 -19 -3 -7 6
10 7 11 11 3 11 -7 0 -13 8 -14 18 0 14 -2 14 -9 -3 -8 -18 -9 -18 -9 -2 -1
10 -8 20 -16 23 -8 4 -12 10 -9 15 3 5 -5 9 -18 9 -18 0 -20 2 -8 10 13 8 12
10 -3 10 -10 0 -20 7 -23 15 -4 8 -10 12 -15 9 -5 -3 -9 -2 -8 3 1 4 1 15 0
23 -1 13 -2 13 -11 0 -8 -13 -10 -12 -10 3 0 10 -4 15 -10 12 -5 -3 -10 0 -10
8 0 8 -10 19 -22 26 -23 11 -23 11 2 6 24 -5 24 -4 -3 8 -15 7 -24 16 -21 20
4 4 -4 7 -17 7 -19 0 -21 2 -9 10 13 8 13 10 -2 10 -9 0 -25 15 -37 33 -11 17
-21 26 -21 19 0 -7 -5 -10 -10 -7 -6 4 -8 11 -5 16 4 5 4 9 1 9 -3 0 -8 -4
-11 -10z m-94 -137 c10 -11 10 -14 2 -9 -22 13 -14 -3 19 -39 17 -19 38 -35
46 -35 8 0 12 -6 8 -15 -3 -8 0 -14 7 -12 7 1 11 -4 9 -11 -1 -8 2 -11 8 -7 5
3 10 1 10 -4 0 -6 7 -11 15 -11 13 0 19 -12 16 -32 0 -4 6 -5 14 -2 9 4 15 0
15 -10 0 -9 6 -16 14 -16 7 0 20 -8 27 -17 13 -16 12 -17 -4 -4 -9 8 -20 11
-23 9 -3 -3 9 -12 26 -19 17 -8 28 -19 25 -26 -2 -7 1 -12 8 -10 7 1 11 -4 9
-11 -1 -8 2 -11 8 -7 5 3 10 2 10 -3 0 -5 8 -12 18 -14 10 -3 19 -12 19 -21 0
-9 -4 -14 -9 -11 -4 3 -8 -5 -8 -17 0 -12 -3 -19 -7 -16 -3 4 -17 -9 -30 -28
-13 -19 -29 -35 -36 -35 -23 0 -110 -97 -101 -112 6 -9 2 -9 -11 2 -11 9 -16
10 -11 2 4 -7 1 -15 -9 -18 -9 -4 -14 -12 -11 -20 3 -8 -2 -11 -15 -9 -18 4
-19 2 -7 -12 11 -14 11 -15 0 -9 -15 9 -62 -29 -62 -50 0 -13 -25 -13 -37 1
-4 4 -2 5 6 0 9 -5 12 -4 7 3 -4 7 -12 12 -17 12 -14 0 -39 26 -39 40 0 6 -8
10 -17 8 -12 -2 -18 4 -18 19 0 12 -4 25 -9 30 -5 5 -6 3 -2 -4 4 -7 2 -13 -3
-13 -6 0 -11 7 -11 16 0 8 -4 12 -10 9 -5 -3 -10 2 -10 11 0 10 -3 15 -6 11
-8 -8 -34 18 -34 34 0 7 -3 10 -6 6 -8 -8 -34 18 -34 33 0 6 -5 8 -12 4 -7 -5
-9 -2 -5 9 4 12 2 14 -10 10 -11 -4 -14 -2 -9 5 4 7 2 12 -4 12 -20 0 -42 30
-36 47 5 13 4 14 -9 3 -11 -9 -15 -9 -15 -1 0 7 -5 9 -12 5 -10 -6 -10 -4 0 8
10 13 10 18 1 24 -7 4 -9 3 -6 -3 3 -5 0 -10 -8 -10 -11 0 -12 3 -3 14 6 8 17
12 25 9 7 -3 13 1 13 9 0 7 4 17 10 20 6 4 7 -1 4 -12 -6 -15 -4 -15 9 2 8 11
13 23 11 27 -2 3 5 9 15 13 11 3 23 15 27 27 4 14 8 17 14 8 5 -8 10 -3 14 14
3 14 12 26 20 26 7 0 20 8 27 18 13 16 13 16 -6 2 -19 -14 -19 -14 -6 3 8 10
21 15 29 12 13 -5 13 -3 1 12 -9 11 -10 14 -2 9 12 -7 76 48 67 57 -3 2 2 10
11 17 13 11 14 10 9 -6 -6 -18 -6 -18 9 1 8 11 13 23 10 28 -2 4 9 10 26 13
17 4 28 10 25 15 -9 16 3 10 17 -8z m40 -50 c13 -16 12 -17 -3 -4 -10 7 -18
15 -18 17 0 8 8 3 21 -13z m129 -436 c0 -2 -10 -12 -22 -23 l-23 -19 19 23
c18 21 26 27 26 19z m-529 -114 c13 -16 12 -17 -3 -4 -17 13 -22 21 -14 21 2
0 10 -8 17 -17z m389 -27 c0 -2 -8 -10 -17 -17 -16 -13 -17 -12 -4 4 13 16 21
21 21 13z"/>
<path d="M2235 1220 c-3 -5 -2 -10 4 -10 5 0 13 5 16 10 3 6 2 10 -4 10 -5 0
-13 -4 -16 -10z"/>
<path d="M453 1763 c-7 -3 -13 -11 -13 -19 0 -9 -4 -12 -10 -9 -5 3 -10 -1
-10 -9 0 -9 -5 -16 -11 -16 -6 0 -9 -6 -6 -14 4 -10 0 -12 -15 -8 -17 4 -20 2
-15 -11 4 -11 2 -14 -7 -11 -8 3 -17 0 -22 -7 -4 -7 -3 -10 4 -5 6 3 14 1 18
-5 4 -7 3 -9 -4 -5 -6 3 -14 1 -18 -5 -4 -8 -9 -7 -16 2 -7 10 -8 7 -5 -9 5
-20 2 -23 -14 -19 -17 5 -18 3 -8 -9 10 -12 9 -13 -5 -8 -11 4 -16 2 -14 -7 2
-8 -4 -13 -14 -13 -10 1 -14 -4 -11 -12 3 -8 0 -14 -7 -14 -7 0 -10 -7 -6 -15
4 -13 2 -13 -14 -5 -16 8 -18 7 -15 -9 2 -13 -1 -18 -10 -15 -7 3 -16 0 -21
-7 -4 -7 -3 -10 4 -5 6 3 14 1 18 -5 4 -8 3 -9 -4 -5 -7 4 -12 2 -12 -5 0 -8
-5 -7 -17 2 -15 12 -16 12 -10 -4 5 -14 2 -20 -14 -24 -12 -4 -18 -11 -15 -20
3 -8 1 -11 -4 -8 -5 3 -18 1 -27 -5 -16 -11 -16 -11 -1 -6 10 3 20 1 23 -5 4
-5 3 -9 -2 -8 -4 1 -20 -3 -35 -9 -21 -8 -26 -16 -21 -29 6 -15 4 -16 -9 -5
-13 10 -18 10 -24 1 -4 -8 -3 -9 4 -5 7 4 12 2 12 -4 0 -6 -10 -14 -23 -19
-27 -11 -32 -45 -9 -63 16 -12 16 -11 3 7 -8 11 -2 8 13 -8 15 -15 25 -31 22
-36 -4 -5 4 -7 16 -4 19 4 20 3 8 -6 -13 -9 -12 -11 3 -11 10 0 15 -4 12 -10
-3 -6 4 -10 17 -10 18 0 20 -2 8 -10 -12 -8 -12 -10 -1 -10 7 0 23 -10 35 -22
12 -13 32 -31 46 -41 l25 -19 -29 17 c-16 10 -25 12 -22 6 4 -6 24 -20 44 -31
28 -16 31 -19 12 -15 -24 5 -23 4 3 -8 15 -7 24 -16 21 -20 -4 -4 4 -7 17 -7
19 0 21 -2 9 -10 -13 -8 -12 -10 3 -10 10 0 20 -7 23 -15 3 -8 21 -24 39 -35
18 -11 32 -28 31 -37 0 -9 9 -22 21 -28 13 -7 20 -15 16 -18 -3 -4 5 -7 18 -7
14 0 19 -3 13 -8 -9 -5 -8 -11 2 -20 9 -8 14 -9 14 -2 0 6 5 8 10 5 6 -4 8
-12 4 -18 -3 -7 3 -2 14 10 11 12 23 19 27 15 3 -4 6 -2 5 3 -5 24 1 34 21 30
17 -4 19 -2 9 10 -10 12 -10 15 0 15 6 0 23 9 37 20 14 11 21 20 16 20 -5 0
-14 -4 -21 -10 -7 -5 -5 -2 4 8 14 16 16 15 35 -10 12 -16 27 -28 35 -28 8 0
24 -15 34 -33 11 -19 32 -39 46 -45 14 -7 23 -8 19 -2 -3 5 5 15 18 21 14 6
30 22 36 35 6 13 15 24 21 24 5 0 10 7 10 16 0 11 6 15 19 11 14 -3 18 -1 14
9 -3 8 0 14 7 14 6 0 8 5 4 12 -4 7 -3 8 5 4 6 -4 14 0 17 9 4 9 13 14 21 11
8 -3 11 -1 8 5 -4 5 9 25 29 44 20 18 36 38 36 44 0 6 12 11 28 11 21 0 24 2
12 10 -11 7 -11 10 -2 10 8 0 10 5 6 12 -5 8 -2 9 9 5 10 -4 17 -1 18 6 0 7 2
20 4 30 3 15 1 16 -13 5 -13 -11 -14 -11 -8 0 9 15 -27 56 -39 44 -4 -4 -6 -2
-4 3 1 6 -1 18 -6 28 -6 14 -10 15 -21 6 -11 -9 -14 -6 -14 15 0 14 -4 26 -10
26 -11 0 -60 -51 -60 -63 0 -4 -4 -6 -9 -2 -5 3 -12 1 -16 -5 -4 -6 -10 -8
-15 -5 -4 3 -6 -5 -3 -17 3 -14 1 -18 -4 -12 -5 8 -16 3 -33 -14 -14 -14 -18
-21 -10 -16 9 5 7 1 -3 -8 -11 -10 -23 -16 -27 -13 -5 3 -6 -5 -3 -17 3 -14 1
-18 -4 -12 -5 8 -16 3 -33 -14 -15 -16 -17 -20 -5 -11 18 13 19 13 6 -3 -7
-10 -19 -18 -26 -18 -16 0 -57 -49 -50 -60 3 -4 -3 -7 -13 -6 -11 0 -16 -6
-16 -17 2 -15 -1 -16 -14 -5 -12 10 -14 10 -8 1 5 -9 0 -12 -17 -11 -14 1 -23
7 -21 13 3 6 -8 22 -23 35 -20 18 -23 19 -13 5 14 -19 14 -19 -3 -6 -10 8 -16
20 -13 28 3 8 1 11 -4 8 -6 -3 -10 -1 -10 4 0 6 -8 11 -17 11 -9 0 -14 3 -10
6 9 9 -19 34 -37 34 -9 0 -16 7 -16 15 0 22 -61 86 -74 78 -6 -4 -4 2 4 12 14
17 14 18 -9 6 -13 -7 -21 -9 -17 -3 6 11 -26 52 -42 52 -5 0 -12 9 -15 21 -4
16 -2 19 10 15 12 -5 13 -3 5 6 -7 9 -6 17 4 26 9 8 14 9 14 2 0 -6 4 -9 10
-5 5 3 6 13 3 22 -4 10 -2 14 4 10 15 -10 107 88 97 105 -6 10 -3 9 12 -2 10
-8 16 -11 12 -6 -4 4 9 21 28 38 19 16 31 35 27 41 -4 6 0 8 10 4 11 -4 15 -1
12 12 -2 12 2 18 13 17 9 0 16 5 14 12 -2 10 10 16 29 14 4 -1 6 18 5 41 -2
31 -7 43 -19 45 -9 2 -17 8 -17 13 0 6 -5 7 -10 4 -6 -4 -10 -3 -9 2 4 18 -14
43 -33 43 -10 0 -17 4 -14 8 5 9 -11 11 -31 5z m37 -236 c0 -2 -10 -12 -22
-23 l-23 -19 19 23 c18 21 26 27 26 19z m-80 -81 c0 -2 -8 -10 -17 -17 -16
-13 -17 -12 -4 4 13 16 21 21 21 13z m-375 -144 c-3 -3 -11 0 -18 7 -9 10 -8
11 6 5 10 -3 15 -9 12 -12z m356 -129 c13 -16 12 -17 -3 -4 -10 7 -18 15 -18
17 0 8 8 3 21 -13z m312 -128 c-3 -9 -8 -14 -10 -11 -3 3 -2 9 2 15 9 16 15
13 8 -4z m-298 -143 c-3 -3 -11 0 -18 7 -9 10 -8 11 6 5 10 -3 15 -9 12 -12z"/>
<path d="M1589 1523 c-13 -16 -12 -17 4 -4 9 7 17 15 17 17 0 8 -8 3 -21 -13z"/>
<path d="M900 1270 c-8 -5 -12 -12 -9 -15 4 -3 12 1 19 10 14 17 11 19 -10 5z"/>
<path d="M1135 1058 c2 -10 -1 -18 -6 -18 -6 0 -25 -16 -42 -35 -17 -19 -37
-35 -45 -35 -9 0 -12 -6 -8 -16 4 -11 2 -15 -8 -11 -9 4 -16 -2 -19 -15 -4
-13 -11 -19 -21 -15 -10 4 -14 0 -11 -14 4 -17 -6 -24 -29 -20 -5 1 -6 -5 -3
-14 4 -9 1 -15 -8 -15 -8 0 -15 -7 -15 -15 0 -9 -6 -12 -17 -8 -10 3 -15 3
-11 -1 4 -5 -8 -23 -27 -41 -20 -21 -29 -36 -22 -39 9 -3 9 -5 0 -5 -17 -1 -4
-31 12 -31 8 0 16 -8 20 -19 3 -10 15 -27 27 -37 12 -11 18 -13 14 -6 -13 23
2 12 18 -13 13 -19 14 -30 6 -45 -6 -11 -15 -18 -20 -15 -5 3 -7 -4 -5 -16 3
-17 1 -19 -10 -9 -10 8 -15 8 -21 -1 -5 -8 -3 -10 7 -4 19 11 2 -6 -35 -33
-16 -12 -22 -22 -15 -22 11 0 11 -2 -1 -10 -13 -9 -13 -10 0 -10 13 0 13 -1 0
-10 -13 -8 -12 -10 3 -10 10 0 20 -7 23 -15 4 -8 10 -12 15 -9 5 3 9 2 8 -3
-1 -4 -1 -17 1 -28 l1 -20 9 20 c8 18 9 18 9 2 1 -10 5 -16 10 -13 5 3 11 -3
14 -14 3 -11 13 -20 24 -21 16 0 16 -1 -2 -9 -19 -8 -19 -9 3 -9 13 -1 20 -5
17 -11 -3 -6 4 -10 17 -10 18 0 20 -2 8 -10 -12 -8 -12 -10 -1 -10 16 0 61
-46 53 -54 -3 -3 6 -6 19 -6 19 0 21 -2 9 -10 -12 -8 -12 -10 -1 -10 7 0 23
-10 35 -23 12 -12 32 -30 46 -40 l25 -19 -29 17 c-16 10 -25 12 -22 6 4 -6 24
-20 44 -31 29 -16 31 -20 12 -16 -23 5 -23 4 3 -6 15 -7 26 -17 23 -24 -3 -8
3 -10 17 -7 16 3 18 2 9 -5 -11 -7 -9 -10 7 -15 12 -3 21 -12 21 -21 0 -9 3
-16 8 -17 4 0 16 -2 27 -4 20 -4 20 -4 1 11 -24 17 -13 19 17 2 20 -10 21 -10
8 6 -12 15 -12 17 0 14 8 -2 13 2 12 9 -2 7 6 10 17 8 13 -2 17 1 13 11 -3 7
2 17 11 20 9 3 13 11 9 18 -4 6 1 5 10 -3 15 -12 17 -12 12 2 -5 10 3 20 22
29 15 8 27 21 27 30 -1 9 4 14 11 12 7 -3 15 4 18 15 3 12 10 21 17 21 6 0 8
-5 4 -12 -4 -7 -3 -8 5 -4 9 6 9 11 0 22 -9 11 -7 14 11 14 15 0 20 5 17 14
-3 8 1 13 11 12 9 0 21 9 27 21 7 13 15 20 18 16 4 -3 7 1 7 11 0 9 7 19 15
22 8 4 12 11 8 18 -4 6 0 6 9 -2 13 -11 16 -10 14 4 0 9 5 19 13 22 9 3 11 0
6 -8 -5 -9 -4 -11 4 -6 9 6 9 11 0 22 -9 11 -7 14 11 14 16 0 20 4 16 16 -3 9
-2 12 5 9 15 -10 49 24 42 43 -5 11 -2 14 10 9 11 -4 14 -2 10 9 -3 7 -9 14
-13 14 -5 0 -12 9 -15 20 -4 11 -10 18 -15 15 -4 -3 -10 2 -14 10 -3 8 -12 15
-20 15 -8 0 -18 4 -21 10 -4 6 1 7 12 3 15 -6 16 -5 3 9 -8 8 -21 13 -27 11
-7 -3 -13 2 -13 11 0 9 5 16 11 16 5 0 8 4 5 9 -3 5 1 12 10 15 10 4 14 12 10
22 -6 15 -4 15 11 3 9 -8 14 -9 10 -3 -4 7 0 15 8 18 8 3 15 9 14 13 -3 20 2
27 11 13 8 -13 10 -12 10 3 0 12 4 16 13 11 9 -6 9 -5 0 7 -7 9 -9 19 -4 25 9
9 -55 75 -64 66 -3 -3 -5 5 -5 17 0 12 -4 19 -10 16 -5 -3 -10 1 -10 9 0 9 -5
16 -11 16 -18 0 -41 29 -33 42 5 8 1 8 -12 -2 -10 -8 -16 -11 -12 -6 4 5 -6
22 -23 38 -16 17 -26 35 -22 41 4 8 1 7 -9 -1 -14 -11 -18 -8 -29 18 -8 16
-20 30 -26 30 -7 0 -13 5 -13 10 0 6 -7 10 -16 10 -13 0 -14 3 -5 13 8 10 7
14 -4 14 -8 0 -15 -3 -15 -7 0 -4 -11 -6 -26 -4 -21 2 -23 0 -13 -12 11 -14 2
-19 -24 -15 -5 1 -6 -3 -3 -8 3 -5 -6 -16 -19 -25 -14 -9 -23 -21 -20 -26 3
-5 0 -12 -6 -16 -8 -4 -9 -3 -5 4 4 7 2 12 -3 12 -6 0 -11 -7 -11 -16 0 -8 -5
-12 -10 -9 -6 4 -8 10 -5 15 3 4 -5 6 -17 2 -13 -3 -19 -1 -15 5 4 6 0 13 -8
17 -8 3 -15 12 -15 21 0 8 -9 15 -20 15 -13 0 -18 5 -14 15 5 11 2 13 -12 8
-11 -4 -15 -3 -11 4 4 6 -5 13 -22 15 -24 3 -29 1 -26 -14z m161 -113 c5 -11
11 -12 25 -5 15 8 17 7 13 -5 -4 -8 -1 -15 5 -15 6 0 11 -7 11 -15 0 -8 5 -15
11 -15 5 0 7 -5 4 -10 -4 -6 -3 -10 2 -9 16 4 43 -13 43 -27 0 -8 4 -14 8 -14
5 0 17 -7 28 -15 19 -15 19 -15 -1 -9 -17 4 -16 3 3 -8 12 -8 19 -17 15 -22
-4 -4 1 -4 12 0 15 6 17 4 12 -10 -4 -10 -3 -15 3 -11 6 3 13 -1 16 -9 3 -9
10 -13 15 -10 5 3 9 -2 9 -10 0 -8 9 -18 20 -21 26 -8 45 -41 27 -49 -8 -4 -7
-5 3 -5 34 2 42 -1 36 -17 -3 -8 -2 -12 4 -9 13 8 13 2 -2 -30 -6 -14 -15 -25
-20 -25 -5 0 -6 -4 -3 -10 3 -5 -1 -10 -10 -10 -8 0 -19 -10 -24 -22 -5 -13
-12 -23 -17 -23 -5 0 -8 -3 -6 -7 1 -5 -4 -8 -12 -8 -8 0 -24 -12 -35 -26 -12
-15 -21 -24 -21 -20 0 4 -14 -9 -31 -28 -19 -22 -28 -40 -23 -48 5 -8 1 -7
-11 2 -10 8 -16 10 -12 4 4 -7 0 -14 -8 -18 -8 -3 -15 -12 -15 -20 0 -8 -5
-18 -12 -22 -7 -5 -8 -3 -3 7 8 12 6 12 -9 0 -9 -8 -15 -20 -12 -28 3 -8 1
-11 -4 -8 -6 3 -10 0 -10 -7 0 -8 -5 -6 -11 5 -8 14 -14 15 -24 7 -10 -8 -15
-8 -21 1 -5 8 -3 9 6 4 9 -5 11 -4 6 4 -4 6 -15 10 -23 9 -9 -2 -17 5 -18 14
-4 23 -30 49 -40 40 -5 -4 -5 2 -1 12 5 16 4 17 -8 7 -13 -11 -15 -9 -11 8 2
13 -1 18 -9 15 -7 -3 -19 3 -27 13 -13 17 -13 17 5 3 18 -14 18 -14 6 7 -8 12
-16 21 -19 21 -23 -2 -32 4 -27 17 3 8 0 14 -7 12 -7 -1 -11 4 -9 11 1 8 -2
11 -8 7 -5 -3 -10 -1 -10 4 0 6 -7 11 -16 11 -8 0 -12 5 -9 10 6 9 -8 14 -28
11 -5 -1 -6 3 -3 8 12 19 -5 39 -27 33 -19 -5 -20 -3 -9 10 10 13 10 18 1 24
-7 4 -9 3 -6 -3 3 -5 0 -10 -7 -10 -8 0 -12 6 -9 14 5 12 18 17 37 14 5 -1 3
5 -4 14 -11 13 -10 15 1 10 8 -3 23 2 34 10 19 16 19 16 -2 5 -31 -15 -29 -9
9 26 18 16 26 20 18 9 -9 -13 -5 -11 12 5 17 17 22 28 14 33 -7 5 -2 7 11 4
12 -3 22 -2 21 2 -2 19 3 31 15 31 20 0 48 37 34 44 -7 4 -2 4 10 2 12 -2 22
-1 21 3 -2 19 4 31 16 31 7 0 20 8 27 18 13 16 13 16 -6 2 -19 -14 -19 -14 -6
3 8 10 20 16 27 13 8 -3 11 2 9 14 -2 12 1 17 10 14 7 -3 16 0 21 7 5 8 3 10
-7 4 -12 -7 -12 -6 -1 7 10 13 10 17 0 21 -10 4 -10 6 0 6 7 1 15 -6 18 -14z
m345 -343 c-6 -11 -7 -23 -3 -27 4 -5 2 -5 -5 -1 -9 5 -10 13 -1 31 6 14 13
23 15 21 3 -2 0 -13 -6 -24z m-121 -126 c0 -2 -8 -10 -17 -17 -16 -13 -17 -12
-4 4 13 16 21 21 21 13z m220 -41 c-7 -9 -15 -13 -19 -10 -3 3 1 10 9 15 21
14 24 12 10 -5z m-270 -8 c0 -2 -10 -12 -22 -23 l-23 -19 19 23 c18 21 26 27
26 19z m105 -146 c3 -5 1 -12 -5 -16 -5 -3 -10 1 -10 9 0 18 6 21 15 7z m-120
-132 c-4 -5 -12 -9 -18 -8 -9 0 -8 2 1 6 6 2 9 10 6 15 -4 7 -2 8 5 4 6 -4 9
-12 6 -17z"/>
<path d="M342 944 c10 -10 20 -16 22 -13 3 3 -5 11 -17 18 -21 13 -21 12 -5
-5z"/>
<path d="M670 880 c6 -11 13 -20 16 -20 2 0 0 9 -6 20 -6 11 -13 20 -16 20 -2
0 0 -9 6 -20z"/>
</g>
</svg>
